HIERARCHY
ROOT mixamorig:Hips
{
	OFFSET 0.000000 106.130402 -0.000000
	CHANNELS 6 Xposition Yposition Zposition Xrotation Yrotation Zrotation
	JOINT mixamorig:Spine
	{
		OFFSET -0.038117 9.490501 -1.392100
		CHANNELS 6 Xposition Yposition Zposition Xrotation Yrotation Zrotation
		JOINT mixamorig:Spine1
		{
			OFFSET -0.044226 11.072235 -1.624061
			CHANNELS 3 Xrotation Yrotation Zrotation
			JOINT mixamorig:Spine2
			{
				OFFSET -0.050544 12.653999 -1.856072
				CHANNELS 3 Xrotation Yrotation Zrotation
				JOINT mixamorig:Neck
				{
					OFFSET -0.056883 14.235809 -2.088087
					CHANNELS 6 Xposition Yposition Zposition Xrotation Yrotation Zrotation
					JOINT mixamorig:Head
					{
						OFFSET 0.000004 3.280197 0.313303
						CHANNELS 6 Xposition Yposition Zposition Xrotation Yrotation Zrotation
						JOINT mixamorig:HeadTop_End
						{
							OFFSET 0.000030 25.653503 2.450522
							CHANNELS 6 Xposition Yposition Zposition Xrotation Yrotation Zrotation
							End Site
							{
								OFFSET 0.000031 25.770279 0.000023
							}
						}
					}
				}
				JOINT mixamorig:LeftShoulder
				{
					OFFSET 6.728814 11.756592 -2.058488
					CHANNELS 6 Xposition Yposition Zposition Xrotation Yrotation Zrotation
					JOINT mixamorig:LeftArm
					{
						OFFSET 14.094160 -3.181030 0.059262
						CHANNELS 3 Xrotation Yrotation Zrotation
						JOINT mixamorig:LeftForeArm
						{
							OFFSET 23.160299 0.000000 0.000000
							CHANNELS 3 Xrotation Yrotation Zrotation
							JOINT mixamorig:LeftHand
							{
								OFFSET 24.071800 0.000000 0.000000
								CHANNELS 3 Xrotation Yrotation Zrotation
								JOINT mixamorig:LeftHandThumb1
								{
									OFFSET 4.173401 -1.926498 1.509006
									CHANNELS 6 Xposition Yposition Zposition Xrotation Yrotation Zrotation
									JOINT mixamorig:LeftHandThumb2
									{
										OFFSET 2.998001 -1.730896 1.730896
										CHANNELS 3 Xrotation Yrotation Zrotation
										JOINT mixamorig:LeftHandThumb3
										{
											OFFSET 3.648811 -2.106644 2.106645
											CHANNELS 3 Xrotation Yrotation Zrotation
											JOINT mixamorig:LeftHandThumb4
											{
												OFFSET 2.967018 -1.712997 1.713007
												CHANNELS 3 Xrotation Yrotation Zrotation
												End Site
												{
													OFFSET 2.967010 -1.713013 1.713006
												}
											}
										}
									}
								}
								JOINT mixamorig:LeftHandIndex1
								{
									OFFSET 14.669403 -0.398788 2.855501
									CHANNELS 6 Xposition Yposition Zposition Xrotation Yrotation Zrotation
									JOINT mixamorig:LeftHandIndex2
									{
										OFFSET 3.248596 0.000000 0.000000
										CHANNELS 3 Xrotation Yrotation Zrotation
										JOINT mixamorig:LeftHandIndex3
										{
											OFFSET 2.659599 0.000000 0.000000
											CHANNELS 3 Xrotation Yrotation Zrotation
											JOINT mixamorig:LeftHandIndex4
											{
												OFFSET 3.633202 0.000000 0.000000
												CHANNELS 3 Xrotation Yrotation Zrotation
												End Site
												{
													OFFSET 3.633194 0.000000 0.000000
												}
											}
										}
									}
								}
								JOINT mixamorig:LeftHandMiddle1
								{
									OFFSET 14.409798 0.000000 0.000000
									CHANNELS 6 Xposition Yposition Zposition Xrotation Yrotation Zrotation
									JOINT mixamorig:LeftHandMiddle2
									{
										OFFSET 3.259102 0.000000 0.000000
										CHANNELS 3 Xrotation Yrotation Zrotation
										JOINT mixamorig:LeftHandMiddle3
										{
											OFFSET 2.639900 0.000000 0.000000
											CHANNELS 3 Xrotation Yrotation Zrotation
											JOINT mixamorig:LeftHandMiddle4
											{
												OFFSET 3.673904 0.000000 0.000000
												CHANNELS 3 Xrotation Yrotation Zrotation
												End Site
												{
													OFFSET 3.673904 0.000000 0.000000
												}
											}
										}
									}
								}
								JOINT mixamorig:LeftHandRing1
								{
									OFFSET 13.191498 0.321991 -3.304901
									CHANNELS 6 Xposition Yposition Zposition Xrotation Yrotation Zrotation
									JOINT mixamorig:LeftHandRing2
									{
										OFFSET 2.717606 0.000000 0.000000
										CHANNELS 3 Xrotation Yrotation Zrotation
										JOINT mixamorig:LeftHandRing3
										{
											OFFSET 2.134499 0.000000 0.000000
											CHANNELS 3 Xrotation Yrotation Zrotation
											JOINT mixamorig:LeftHandRing4
											{
												OFFSET 2.786896 0.000000 0.000000
												CHANNELS 3 Xrotation Yrotation Zrotation
												End Site
												{
													OFFSET 2.786896 0.000000 0.000000
												}
											}
										}
									}
								}
								JOINT mixamorig:LeftHandPinky1
								{
									OFFSET 11.636398 -0.516617 -5.614198
									CHANNELS 6 Xposition Yposition Zposition Xrotation Yrotation Zrotation
									JOINT mixamorig:LeftHandPinky2
									{
										OFFSET 1.559402 0.000000 0.000000
										CHANNELS 3 Xrotation Yrotation Zrotation
										JOINT mixamorig:LeftHandPinky3
										{
											OFFSET 1.540604 0.000000 0.000000
											CHANNELS 3 Xrotation Yrotation Zrotation
											JOINT mixamorig:LeftHandPinky4
											{
												OFFSET 1.668694 0.000000 0.000000
												CHANNELS 3 Xrotation Yrotation Zrotation
												End Site
												{
													OFFSET 1.668701 0.000000 0.000000
												}
											}
										}
									}
								}
							}
						}
					}
				}
				JOINT mixamorig:RightShoulder
				{
					OFFSET -6.728786 11.756714 -2.058491
					CHANNELS 6 Xposition Yposition Zposition Xrotation Yrotation Zrotation
					JOINT mixamorig:RightArm
					{
						OFFSET -14.094133 -3.181152 0.059256
						CHANNELS 3 Xrotation Yrotation Zrotation
						JOINT mixamorig:RightForeArm
						{
							OFFSET -23.160299 0.000000 0.000000
							CHANNELS 3 Xrotation Yrotation Zrotation
							JOINT mixamorig:RightHand
							{
								OFFSET -24.071701 0.000000 0.000000
								CHANNELS 3 Xrotation Yrotation Zrotation
								JOINT mixamorig:RightHandThumb1
								{
									OFFSET -4.173401 -1.930939 1.503952
									CHANNELS 6 Xposition Yposition Zposition Xrotation Yrotation Zrotation
									JOINT mixamorig:RightHandThumb2
									{
										OFFSET -2.998001 -1.730896 1.730896
										CHANNELS 3 Xrotation Yrotation Zrotation
										JOINT mixamorig:RightHandThumb3
										{
											OFFSET -3.648582 -2.106506 2.106510
											CHANNELS 3 Xrotation Yrotation Zrotation
											JOINT mixamorig:RightHandThumb4
											{
												OFFSET -2.967010 -1.713013 1.713007
												CHANNELS 3 Xrotation Yrotation Zrotation
												End Site
												{
													OFFSET -2.967010 -1.713013 1.713006
												}
											}
										}
									}
								}
								JOINT mixamorig:RightHandIndex1
								{
									OFFSET -14.669403 -0.406464 2.854446
									CHANNELS 6 Xposition Yposition Zposition Xrotation Yrotation Zrotation
									JOINT mixamorig:RightHandIndex2
									{
										OFFSET -3.248596 0.000000 0.000000
										CHANNELS 3 Xrotation Yrotation Zrotation
										JOINT mixamorig:RightHandIndex3
										{
											OFFSET -2.659599 0.000000 0.000000
											CHANNELS 3 Xrotation Yrotation Zrotation
											JOINT mixamorig:RightHandIndex4
											{
												OFFSET -3.633102 0.000000 0.000000
												CHANNELS 3 Xrotation Yrotation Zrotation
												End Site
												{
													OFFSET -3.633102 0.000000 0.000000
												}
											}
										}
									}
								}
								JOINT mixamorig:RightHandMiddle1
								{
									OFFSET -14.409798 0.000000 0.000000
									CHANNELS 6 Xposition Yposition Zposition Xrotation Yrotation Zrotation
									JOINT mixamorig:RightHandMiddle2
									{
										OFFSET -3.259102 0.000000 0.000000
										CHANNELS 3 Xrotation Yrotation Zrotation
										JOINT mixamorig:RightHandMiddle3
										{
											OFFSET -2.639801 0.000000 0.000000
											CHANNELS 3 Xrotation Yrotation Zrotation
											JOINT mixamorig:RightHandMiddle4
											{
												OFFSET -3.673897 0.000000 0.000000
												CHANNELS 3 Xrotation Yrotation Zrotation
												End Site
												{
													OFFSET -3.673904 0.000000 0.000000
												}
											}
										}
									}
								}
								JOINT mixamorig:RightHandRing1
								{
									OFFSET -13.191498 0.330658 -3.304046
									CHANNELS 6 Xposition Yposition Zposition Xrotation Yrotation Zrotation
									JOINT mixamorig:RightHandRing2
									{
										OFFSET -2.717606 0.000000 0.000000
										CHANNELS 3 Xrotation Yrotation Zrotation
										JOINT mixamorig:RightHandRing3
										{
											OFFSET -2.134499 0.000000 0.000000
											CHANNELS 3 Xrotation Yrotation Zrotation
											JOINT mixamorig:RightHandRing4
											{
												OFFSET -2.786797 0.000000 0.000000
												CHANNELS 3 Xrotation Yrotation Zrotation
												End Site
												{
													OFFSET -2.786804 0.000000 0.000000
												}
											}
										}
									}
								}
								JOINT mixamorig:RightHandPinky1
								{
									OFFSET -11.636398 -0.501495 -5.923333
									CHANNELS 6 Xposition Yposition Zposition Xrotation Yrotation Zrotation
									JOINT mixamorig:RightHandPinky2
									{
										OFFSET -1.559303 0.000000 0.000000
										CHANNELS 3 Xrotation Yrotation Zrotation
										JOINT mixamorig:RightHandPinky3
										{
											OFFSET -1.540596 0.000000 0.000000
											CHANNELS 3 Xrotation Yrotation Zrotation
											JOINT mixamorig:RightHandPinky4
											{
												OFFSET -1.668701 0.000000 0.000000
												CHANNELS 3 Xrotation Yrotation Zrotation
												End Site
												{
													OFFSET -1.668701 0.000000 0.000000
												}
											}
										}
									}
								}
							}
						}
					}
				}
			}
		}
	}
	JOINT mixamorig:RightUpLeg
	{
		OFFSET -9.940990 -5.272415 -1.010900
		CHANNELS 6 Xposition Yposition Zposition Xrotation Yrotation Zrotation
		JOINT mixamorig:RightLeg
		{
			OFFSET 0.000000 -43.345264 1.301677
			CHANNELS 3 Xrotation Yrotation Zrotation
			JOINT mixamorig:RightFoot
			{
				OFFSET 0.000000 -44.296967 -4.172008
				CHANNELS 3 Xrotation Yrotation Zrotation
				JOINT mixamorig:RightToeBase
				{
					OFFSET -2.597178 -13.215245 14.785532
					CHANNELS 3 Xrotation Yrotation Zrotation
					JOINT mixamorig:RightToe_End
					{
						OFFSET -1.307599 0.027390 9.914103
						CHANNELS 3 Xrotation Yrotation Zrotation
						End Site
						{
							OFFSET -1.307599 0.027390 9.914103
						}
					}
				}
			}
		}
	}
	JOINT mixamorig:LeftUpLeg
	{
		OFFSET 9.618309 -5.272285 -1.010900
		CHANNELS 6 Xposition Yposition Zposition Xrotation Yrotation Zrotation
		JOINT mixamorig:LeftLeg
		{
			OFFSET 0.000000 -43.345459 1.301683
			CHANNELS 3 Xrotation Yrotation Zrotation
			JOINT mixamorig:LeftFoot
			{
				OFFSET 0.000000 -44.296967 -4.172008
				CHANNELS 3 Xrotation Yrotation Zrotation
				JOINT mixamorig:LeftToeBase
				{
					OFFSET 2.597218 -13.215261 14.785510
					CHANNELS 3 Xrotation Yrotation Zrotation
					JOINT mixamorig:LeftToe_End
					{
						OFFSET 1.307524 0.027409 9.914113
						CHANNELS 3 Xrotation Yrotation Zrotation
						End Site
						{
							OFFSET 1.307524 0.027409 9.914112
						}
					}
				}
			}
		}
	}
}
MOTION
Frames: 4
Frame Time: 0.033333
0.503026 102.729881 0.759156 -0.271182 10.134302 -5.017269 -0.038116 9.490499 -1.392102 2.622442 -0.790957 3.817676 1.656093 -2.278675 0.845950 -2.923705 -2.285053 0.251910 -0.056883 14.235824 -2.088087 -3.367574 -1.151238 -0.983951 0.000004 3.280176 0.313304 -1.349393 -3.841516 0.310224 0.000030 25.653488 2.450524 -0.000001 -0.000000 -0.000000 6.728817 11.756631 -2.058487 8.280039 -20.929240 3.137766 1.625255 4.497796 -76.980241 -0.000017 -36.305123 -0.000034 19.884260 -19.957084 5.430765 4.173381 -1.926469 1.509014 28.897499 8.894113 20.768640 -8.694740 18.043871 -12.336308 7.946580 -11.221942 1.406939 -0.000000 -0.000009 0.000003 14.669383 -0.398753 2.855503 0.321244 3.500374 3.987070 0.265664 2.465259 -16.816433 -0.020304 0.178485 -3.850803 0.000000 0.000002 -0.000003 14.409778 0.000040 0.000003 0.605065 7.624333 -16.487694 0.612740 3.443012 -27.102855 0.271789 1.846636 -15.987009 0.000002 0.000004 0.000005 13.191488 0.322000 -3.304908 0.877072 8.006946 -34.399790 0.422015 2.000708 -17.172347 0.298772 1.211749 -12.585014 0.000001 0.000000 0.000000 11.636406 -0.516586 -5.614204 3.574112 13.525527 -31.383862 0.487196 2.680670 -29.100789 0.074786 1.530298 -6.724073 0.000000 0.000003 0.000003 -6.728789 11.756747 -2.058490 -0.855015 5.246481 5.396629 22.093430 -2.728077 73.794750 -0.000011 32.516786 0.000058 25.457338 8.380586 4.049684 -4.173420 -1.930950 1.503955 12.593942 -8.153682 -17.222423 6.064830 -5.313244 -13.324108 -13.753603 7.447183 9.069861 -0.000005 0.000002 0.000002 -14.669411 -0.406425 2.854447 -0.934013 0.803140 10.773197 0.637293 -3.394051 26.746428 -0.167854 -0.590581 17.433267 -0.000001 -0.000000 0.000001 -14.409820 0.000014 0.000005 0.839943 -8.113489 23.112409 1.181217 -4.370037 38.023479 0.821936 -3.075377 31.081749 0.000000 -0.000003 0.000000 -13.191523 0.330670 -3.304041 1.275664 -8.669030 41.005584 0.713384 -2.594927 23.801271 -0.130797 -0.209829 20.215125 -0.000000 0.000003 0.000001 -11.636405 -0.501466 -5.923329 2.500263 -10.281930 45.253056 1.612585 -4.332266 49.089679 -0.378868 -2.603556 43.266762 -0.000002 0.000001 -0.000006 -9.940991 -5.272426 -1.010903 -9.053595 -13.098917 10.153149 18.716412 1.114312 -1.987865 -8.699585 -4.685315 -5.371977 -2.773161 -0.000001 0.000002 -0.000000 -0.000000 0.000000 9.618307 -5.272284 -1.010903 -24.486129 -1.358960 3.443943 63.239984 1.993752 6.883944 4.394245 0.169944 -1.347485 -3.490812 0.136344 -4.056542 0.000003 0.000001 0.000001 
0.755464 103.161591 6.318173 0.514052 8.477301 -3.914302 -0.038118 9.490489 -1.392098 2.221910 -0.247296 3.141839 1.320654 -1.249887 0.284490 -3.217853 -1.239440 -0.283699 -0.056883 14.235806 -2.088087 -2.924324 -1.309464 -0.732112 0.000005 3.280194 0.313303 -0.381135 -4.256675 0.844487 0.000030 25.653534 2.450522 0.000000 -0.000000 -0.000000 6.728815 11.756602 -2.058486 8.097224 -21.022453 2.432437 4.324037 7.969320 -78.978304 -0.000003 -32.694036 -0.000016 23.868086 -14.990771 -3.994064 4.173405 -1.926500 1.509010 27.832529 9.961582 24.160753 -4.456031 10.903834 -13.932520 6.998364 -19.987965 2.374264 0.000001 0.000000 0.000007 14.669420 -0.398789 2.855505 1.471157 4.060065 0.584775 0.271727 2.485142 -17.022348 -0.019648 0.199322 -4.056416 0.000000 -0.000002 0.000000 14.409803 0.000027 0.000002 0.977805 8.746257 -18.138143 0.611816 3.441107 -27.081495 0.271273 1.845026 -15.970331 0.000001 0.000003 0.000004 13.191528 0.322003 -3.304900 1.077416 8.345175 -36.267099 0.415457 1.985016 -17.002190 0.293490 1.195625 -12.414072 0.000002 0.000002 -0.000002 11.636411 -0.516603 -5.614195 4.137701 14.274661 -32.286991 0.486418 2.678939 -29.081959 0.074451 1.528443 -6.705294 -0.000001 -0.000001 0.000001 -6.728786 11.756711 -2.058490 -0.860284 5.573554 5.481419 16.310932 -2.509388 72.699277 0.000002 33.397139 0.000026 26.503376 6.496352 3.270071 -4.173403 -1.930941 1.503944 12.230961 -7.969373 -17.507201 5.750119 -5.677876 -13.140424 -13.830021 7.698048 9.048505 0.000003 -0.000003 -0.000001 -14.669401 -0.406437 2.854441 -1.010262 1.145078 10.974204 0.637973 -3.395414 26.761509 -0.167691 -0.592149 17.448357 -0.000004 0.000000 0.000001 -14.409804 0.000017 -0.000006 0.568637 -7.468966 23.643192 1.182037 -4.371137 38.037156 0.822434 -3.076205 31.091520 -0.000001 0.000001 0.000001 -13.191514 0.330671 -3.304048 1.265179 -8.658414 41.226264 0.716051 -2.599639 23.855493 -0.130065 -0.215371 20.269662 -0.000000 -0.000002 -0.000003 -11.636433 -0.501483 -5.923334 2.438142 -10.190915 45.626022 1.615120 -4.334863 49.125733 -0.377544 -2.607402 43.302686 0.000001 -0.000001 -0.000001 -9.940993 -5.272415 -1.010900 -6.144186 -13.179914 9.372304 18.036740 1.101813 -2.357330 -10.484848 -2.409326 -4.725215 -2.707279 0.000007 0.000002 -0.000000 -0.000000 -0.000000 9.618307 -5.272281 -1.010904 -29.231294 -1.578344 0.574487 56.409166 3.807220 6.632330 0.975913 0.587025 -3.350139 -2.895787 0.099961 -2.715391 -0.000001 0.000001 0.000000 
1.070584 103.062691 11.839948 1.394451 6.037080 -2.638541 -0.038116 9.490510 -1.392101 1.738376 0.316742 2.331121 1.189310 -0.070743 -0.010986 -3.312097 -0.061147 -0.540019 -0.056883 14.235829 -2.088087 -3.121415 -1.251188 -1.091544 0.000005 3.280195 0.313301 0.167239 -4.499402 0.960836 0.000030 25.653549 2.450520 -0.000000 -0.000000 0.000000 6.728815 11.756610 -2.058484 7.521392 -19.869761 0.240298 7.610179 12.305141 -79.228125 -0.000008 -32.035011 -0.000034 32.365732 -11.114677 -15.322983 4.173394 -1.926494 1.508990 26.732901 11.080685 27.786903 4.526238 11.647254 -14.819171 6.389786 -24.187855 1.896329 -0.000002 0.000002 0.000001 14.669394 -0.398771 2.855502 2.784290 4.353360 -1.311124 0.275448 2.497230 -17.147748 -0.019170 0.212022 -4.181510 -0.000000 -0.000002 0.000000 14.409790 0.000016 -0.000003 1.247567 9.508277 -18.726190 0.610871 3.439153 -27.059794 0.270803 1.843518 -15.954350 -0.000002 0.000001 -0.000003 13.191517 0.322001 -3.304904 1.201604 8.534443 -36.867152 0.412931 1.978971 -16.936619 0.291498 1.189411 -12.348209 0.000001 0.000003 -0.000000 11.636420 -0.516608 -5.614202 4.218388 14.408499 -32.278368 0.487717 2.681800 -29.113319 0.075014 1.531537 -6.736601 -0.000000 0.000001 -0.000001 -6.728790 11.756719 -2.058491 -0.784123 6.381141 3.869981 10.664884 -1.627335 72.742539 -0.000033 33.865707 0.000055 26.095885 5.164825 3.122603 -4.173393 -1.930945 1.503950 12.435311 -7.282896 -17.169506 5.104400 -5.979271 -13.198501 -13.898159 7.922599 9.030033 -0.000001 0.000003 -0.000001 -14.669399 -0.406437 2.854444 -1.097822 1.464659 11.275859 0.634551 -3.388618 26.685969 -0.168463 -0.584310 17.373001 -0.000001 0.000003 0.000005 -14.409815 0.000019 0.000002 0.265901 -6.785770 24.208962 1.182730 -4.372050 38.048778 0.822787 -3.076795 31.098405 0.000000 -0.000000 0.000000 -13.191538 0.330676 -3.304044 1.261690 -8.658669 41.584309 0.719795 -2.606244 23.931528 -0.129016 -0.223172 20.346186 0.000002 0.000001 -0.000002 -11.636432 -0.501483 -5.923337 2.336664 -10.050676 46.145639 1.610548 -4.330188 49.060743 -0.379915 -2.600494 43.238021 -0.000002 -0.000002 -0.000002 -9.940990 -5.272389 -1.010901 -3.580338 -13.201117 7.929067 17.829145 2.275893 -2.486763 -13.252389 0.254188 -4.188268 -2.411221 0.000001 0.000001 -0.000000 -0.000000 -0.000000 9.618307 -5.272276 -1.010911 -32.202242 -1.290642 -1.214356 46.652747 4.767750 5.908760 -0.491724 0.753296 -3.541133 -0.131233 0.000003 -0.000003 -0.000001 -0.000002 -0.000000 
1.429523 102.674767 17.418526 2.161972 3.238860 -1.106838 -0.038116 9.490481 -1.392100 1.371725 0.741238 1.638121 1.083228 0.807519 -0.532532 -3.396408 0.838326 -1.023559 -0.056883 14.235819 -2.088085 -3.502633 -1.039021 -1.491722 0.000002 3.280229 0.313301 0.265013 -4.087353 0.791330 0.000030 25.653473 2.450526 0.000000 0.000000 0.000000 6.728816 11.756600 -2.058485 6.979795 -16.953687 -2.130159 10.941127 16.423941 -78.862273 -0.000009 -32.026907 -0.000020 42.935256 -8.791884 -24.867769 4.173395 -1.926501 1.509000 25.783577 11.942538 31.121948 5.421171 15.496770 -14.216029 6.529937 -25.873824 2.600800 0.000002 0.000001 0.000005 14.669394 -0.398779 2.855497 4.150908 3.608827 1.083050 0.285541 2.529540 -17.483169 -0.017836 0.245990 -4.516611 0.000000 0.000001 0.000001 14.409804 0.000021 -0.000003 0.974675 9.022058 -15.604885 0.606479 3.430114 -26.959032 0.267733 1.833837 -15.852683 0.000000 0.000003 0.000003 13.191518 0.321998 -3.304905 1.110852 8.385004 -33.997830 0.415002 1.983903 -16.990150 0.293130 1.194472 -12.401987 0.000000 0.000005 0.000001 11.636412 -0.516610 -5.614208 3.399106 13.587588 -29.573671 0.496493 2.701168 -29.324546 0.078881 1.552411 -6.947523 0.000000 0.000000 0.000002 -6.728785 11.756708 -2.058489 -0.665300 7.917484 2.245777 5.789225 0.249636 72.986568 -0.000004 33.995699 0.000017 24.326670 4.748520 3.478613 -4.173398 -1.930940 1.503948 12.781742 -6.238741 -16.634536 4.454106 -6.335032 -13.308174 -13.953999 8.107155 9.015272 -0.000003 0.000001 -0.000005 -14.669389 -0.406455 2.854444 -1.198461 1.615937 11.863543 0.625404 -3.370378 26.483551 -0.170488 -0.563317 17.171203 -0.000001 0.000005 0.000002 -14.409810 0.000021 -0.000003 -0.045794 -6.125300 24.866933 1.183182 -4.372627 38.055929 0.822945 -3.077041 31.101324 0.000002 -0.000006 -0.000003 -13.191509 0.330677 -3.304047 1.212981 -8.607796 42.166951 0.721396 -2.609088 23.964347 -0.128562 -0.226564 20.379621 -0.000000 0.000000 -0.000001 -11.636405 -0.501471 -5.923334 2.170926 -9.846771 46.696487 1.604830 -4.324304 48.979024 -0.382914 -2.591797 43.156683 0.000002 0.000005 0.000002 -9.940993 -5.272400 -1.010901 -0.745786 -13.562437 6.001928 17.326182 5.676039 -2.558729 -16.227993 0.602937 -4.071206 -2.392519 0.000001 0.000001 -0.000000 0.000004 0.000000 9.618308 -5.272295 -1.010909 -33.910346 -0.137369 -2.227586 35.088608 4.956423 5.005004 -1.002373 0.586860 -2.482175 -0.230130 0.000012 -0.000000 -0.000000 0.000001 -0.000000 
